<?xml version="1.0" encoding="UTF-8"?>
<svg width="157px" height="112px" viewBox="0 0 157 112" version="1.1" xmlns="http://www.w3.org/2000/svg" xmlns:xlink="http://www.w3.org/1999/xlink">
    <title>Director</title>
    <g id="Roles-(Official---Clean-Version)" stroke="none" stroke-width="1" fill="none" fill-rule="evenodd">
        <g id="Director" transform="translate(0.5, 1)">
            <g id="Director_x27_s_Chair" transform="translate(0, 14.2544)" stroke="#231F20">
                <path d="M8.65217294,78.0618529 C8.65217294,80.4928449 6.75951008,82.3836163 4.32608645,82.3836163 L4.32608645,82.3836163 C1.89266282,82.3836163 0,80.4928449 0,78.0618529 L0,4.32176348 C0,1.89077152 1.89266282,0 4.32608645,0 L4.32608645,0 C6.75951008,0 8.65217294,1.89077152 8.65217294,4.32176348 L8.65217294,78.0618529 L8.65217294,78.0618529 Z" id="Shape" fill="#FFFFFF"></path>
                <path d="M155.569555,78.0618529 C155.569555,80.4928449 153.676892,82.3836163 151.243468,82.3836163 L151.243468,82.3836163 C148.810044,82.3836163 146.917382,80.4928449 146.917382,78.0618529 L146.917382,4.32176348 C146.917382,1.89077152 148.810044,0 151.243468,0 L151.243468,0 C153.676892,0 155.569555,1.89077152 155.569555,4.32176348 L155.569555,78.0618529 L155.569555,78.0618529 Z" id="Shape" fill="#FFFFFF"></path>
                <polygon id="Rectangle-path" fill="#231F20" points="8.65217294 8.10330654 145.494278 8.10330654 145.494278 78.0618529 8.65217294 78.0618529"></polygon>
            </g>
            <ellipse id="Head_21_" stroke="#010101" stroke-width="0.25" fill="#FF0000" cx="77.1074967" cy="55.3725946" rx="55.4279826" ry="55.3725946"></ellipse>
        </g>
    </g>
</svg>